# xmcd
#
# Track frame offsets: 
#        150
#        11937
#        22685
#        36650
#        48012
#        59247
#        74080
#        86687
#        99160
#        107360
#        115795
#        128817
#        141620
#
# Disc length: 1983 seconds
#
# Revision: 3
# Processed by: cddbd v1.5.2PL0 Copyright (c) Steve Scherf et al.
# Submitted via: ExactAudioCopy v0.99pb3
#
DISCID=b707bd0d
DTITLE=Johnny Cash and June Carter 2002 - Carryin' On With (Extended Edi
DTITLE=tion)
DYEAR=2002
DGENRE=Country
TTITLE0=Long-Legged Guitar-Pickin' Man
TTITLE1=Shantytown
TTITLE2=It Ain't Me Babe
TTITLE3=Fast Boat To Sydney
TTITLE4=Pack Up Your Sorrows
TTITLE5=I Got A Woman
TTITLE6=Jackson
TTITLE7=Oh, What A Good Thing We Had
TTITLE8=You'll Be All Right
TTITLE9=No, No, No
TTITLE10=What'd I Say
TTITLE11=The Wind Changes [Bonus Track]
TTITLE12=From Sea To Shining Sea (Unreleased Version) [Bonus Track]
EXTD=(c)2002 Sony Music Entertainment\nOriginally released 1967 as "Ca
EXTD=rryin' on"\nTrack 12 1970, Track 13 unreleased version\nupc 50997
EXTD=50637029
EXTT0=
EXTT1=
EXTT2=
EXTT3=
EXTT4=
EXTT5=
EXTT6=
EXTT7=
EXTT8=
EXTT9=
EXTT10=
EXTT11=
EXTT12=
PLAYORDER=
